# xmcd
#
# Track frame offsets: 
#        150
#        13766
#        26387
#        38164
#        51081
#        62912
#        76043
#        86367
#        99783
#        113554
#        125793
#        139289
#        151221
#        166958
#        179797
#        191793
#        205727
#        221359
#        234963
#        249718
#        264553
#
# Disc length: 3712 seconds
#
# Revision: 0
# Processed by: cddbd v1.5.2PL0 Copyright (c) Steve Scherf et al.
# Submitted via: ExactAudioCopy v1.0b3
#
DISCID=190e7e15
DTITLE=Blues Various - Best of Blues
DYEAR=1900
DGENRE=Blues
TTITLE0=Lightnin' Hopkins - Katie Mae Blues
TTITLE1=Lightnin' Hopkins - Automobile
TTITLE2=Lightnin' Hopkins - "T" Model Blues
TTITLE3=Lightnin' Hopkins - Baby Please Don't Go
TTITLE4=Lightnin' Hopkins - Short Haired Woman
TTITLE5=Lightnin' Hopkins - I'm Wild About You Baby
TTITLE6=Lightnin' Hopkins - Had A Gal Called Sal
TTITLE7=Howlin' Wolf - California Boogie
TTITLE8=Howlin' Wolf - (Well) That's Alright
TTITLE9=Howlin' Wolf - Baby Ride With Me
TTITLE10=Howlin' Wolf - The Wolf Is At Your Door
TTITLE11=Howlin' Wolf - Oh, Red!
TTITLE12=Howlin' Wolf - I Got A Woman - Sweet Woman
TTITLE13=Howlin' Wolf - Bluebird Blues
TTITLE14=Howlin' Wolf - Howlin' Wolf Boogie
TTITLE15=Alberta Hunter - Down Hearted Blues
TTITLE16=Alberta Hunter - Why Did You Pick Me Up When I Was Down
TTITLE17=Alberta Hunter - Don't Pan Me
TTITLE18=Alberta Hunter - Jazzin' Baby Blues
TTITLE19=Alberta Hunter - You Can't Have It All
TTITLE20=Alberta Hunter - Taint Nobody's Business
EXTD=
EXTT0=
EXTT1=
EXTT2=
EXTT3=
EXTT4=
EXTT5=
EXTT6=
EXTT7=
EXTT8=
EXTT9=
EXTT10=
EXTT11=
EXTT12=
EXTT13=
EXTT14=
EXTT15=
EXTT16=
EXTT17=
EXTT18=
EXTT19=
EXTT20=
PLAYORDER=
